<?xml version="1.0" encoding="UTF-8"?>
<svg version="1.1" xmlns="http://www.w3.org/2000/svg" width="213" height="213">
<path d="M0 0 C18.00572345 14.42924413 33.61528082 34.7863069 36.48828125 58.4296875 C38.77624946 85.07778786 35.24900942 109.57976175 18.15234375 130.9140625 C3.24452059 148.06632814 -16.90041343 162.73987136 -40.3125 164.75 C-68.94328893 166.44524408 -92.85525068 161.75316471 -114.83886719 142.40673828 C-131.03596078 127.83746781 -143.18356091 106.81652679 -144.48828125 84.78125 C-145.66848179 56.18667688 -140.04443862 33.31837346 -120.56640625 11.6640625 C-89.60093977 -21.58510062 -36.83388769 -26.42639598 0 0 Z " fill="#FEFEFE" transform="translate(160.3125,32.25)"/>
<path d="M0 0 C9.8070775 8.05581366 16.08343559 18.79361975 17.3515625 31.53125 C17.672895 44.96879099 13.60742817 57.14797046 4.5 67.25 C-4.98762062 76.1343615 -17.92658655 80.48452132 -30.72265625 80.25 C-39.03172449 79.61617358 -46.03387254 76.44531091 -53 72 C-53.6911792 71.64953613 -54.3823584 71.29907227 -55.09448242 70.93798828 C-57.54734836 68.44332462 -57.48644881 66.50393072 -57.53013611 63.09725952 C-57.51890213 62.30977325 -57.50766815 61.52228699 -57.49609375 60.7109375 C-57.49754898 59.8930777 -57.49900421 59.0752179 -57.50050354 58.23257446 C-57.49884317 56.49925177 -57.48726635 54.76591456 -57.46655273 53.03271484 C-57.4378309 50.40527049 -57.44589365 47.7798745 -57.45898438 45.15234375 C-57.45273917 43.46353201 -57.44434215 41.77472659 -57.43359375 40.0859375 C-57.43652939 39.31059662 -57.43946503 38.53525574 -57.44248962 37.73641968 C-57.28754245 28.56937831 -54.43447264 20.61552923 -48 14 C-41.12651343 8.44454759 -34.62933919 5.46351689 -25.71484375 5.69140625 C-17.02108391 6.6796178 -9.70475859 10.36385226 -4 17 C1.24636364 24.86300387 2.94149135 31.5518574 2 41 C-0.21745869 49.79411665 -4.35222152 56.07511478 -12 61 C-20.41779206 65.26954295 -27.99776813 66.43071899 -37 63.5625 C-40.80487805 62.19512195 -40.80487805 62.19512195 -42 61 C-42.07226502 59.14712498 -42.0838122 57.29166122 -42.0625 55.4375 C-42.05347656 54.42558594 -42.04445313 53.41367188 -42.03515625 52.37109375 C-42.02355469 51.58863281 -42.01195313 50.80617187 -42 50 C-41.48953125 50.28875 -40.9790625 50.5775 -40.453125 50.875 C-33.99174199 54.17442962 -28.20016331 54.99278018 -21 54 C-15.17045775 52.04637204 -11.67140984 48.00853771 -8.75 42.75 C-6.98183466 36.2667271 -7.42233091 30.6771787 -10.72265625 24.79296875 C-13.41875711 21.00853359 -16.55075142 18.48308286 -21 17 C-28.14727276 16.31558264 -34.20584293 16.18070234 -40.31640625 20.22265625 C-45.38158509 25.56988681 -46.59775671 30.45386939 -46.609375 37.55859375 C-46.62591125 38.34774673 -46.64244751 39.13689972 -46.65948486 39.94996643 C-46.70768363 42.44589232 -46.7292719 44.9412103 -46.75 47.4375 C-46.7781834 49.14000408 -46.80811412 50.84248019 -46.83984375 52.54492188 C-46.91343421 56.69656445 -46.96317969 60.84787513 -47 65 C-36.89642449 69.10383781 -24.53106921 71.77823451 -14 67.375 C-11.93787972 66.2793607 -11.93787972 66.2793607 -10 65 C-9.30519531 64.57589844 -8.61039063 64.15179688 -7.89453125 63.71484375 C-1.24377033 59.23525056 3.61222398 52.67960396 6 45 C7.41350995 33.85248415 6.92821652 23.25727654 0 14 C-6.11304638 7.10709997 -14.08396522 2.35813016 -23.35546875 1.796875 C-35.69568913 1.64592429 -43.78283953 3.33873831 -53 12 C-59.13823297 18.76427166 -61.43242155 26.44923444 -61.51171875 35.4375 C-61.52966995 36.20304199 -61.54762115 36.96858398 -61.56611633 37.75732422 C-61.61973955 40.17149556 -61.65395823 42.58547485 -61.6875 45 C-61.72071568 46.64976605 -61.75520919 48.2995069 -61.79101562 49.94921875 C-61.8754372 53.96600605 -61.94247438 57.98274117 -62 62 C-68.99162221 55.19005973 -71.22295815 47.82059884 -71.59838867 38.26049805 C-71.72976395 24.63242166 -68.62592375 14.03102275 -59 4 C-41.46987454 -11.91924907 -19.67741957 -13.04954621 0 0 Z " fill="#64C293" transform="translate(134,65)"/>
<path d="M0 0 C12.21 0 24.42 0 37 0 C37 2.64 37 5.28 37 8 C24.79 8 12.58 8 0 8 C0 5.36 0 2.72 0 0 Z " fill="#63C192" transform="translate(88,150)"/>
<path d="M0 0 C5.61 0 11.22 0 17 0 C17 2.64 17 5.28 17 8 C11.39 8 5.78 8 0 8 C0 5.36 0 2.72 0 0 Z " fill="#66C294" transform="translate(98,162)"/>
<path d="M0 0 C3.96 0 7.92 0 12 0 C12 0.66 12 1.32 12 2 C8.04 2 4.08 2 0 2 C0 1.34 0 0.68 0 0 Z " fill="#FFFFFF" transform="translate(100,211)"/>
<path d="M0 0 C0.99 0 1.98 0 3 0 C3.66 1.65 4.32 3.3 5 5 C4.01 5 3.02 5 2 5 C1.34 3.35 0.68 1.7 0 0 Z " fill="#FFFFFF" transform="translate(16,163)"/>
<path d="M0 0 C0 0.99 0 1.98 0 3 C-1.65 3.66 -3.3 4.32 -5 5 C-5 4.01 -5 3.02 -5 2 C-2 0 -2 0 0 0 Z " fill="#FFFFFF" transform="translate(168,192)"/>
<path d="M0 0 C1.9375 0.8125 1.9375 0.8125 4 2 C4.33 2.99 4.66 3.98 5 5 C4.01 5 3.02 5 2 5 C1.34 3.35 0.68 1.7 0 0 Z " fill="#FFFFFF" transform="translate(184,34)"/>
<path d="M0 0 C0.66 0.66 1.32 1.32 2 2 C0.625 4 0.625 4 -1 6 C-1.66 6 -2.32 6 -3 6 C-2.42655063 3.13275314 -2.1385485 2.1385485 0 0 Z " fill="#FFFFFF" transform="translate(28,33)"/>
<path d="M0 0 C2.475 0.99 2.475 0.99 5 2 C5 2.99 5 3.98 5 5 C2.5 3.625 2.5 3.625 0 2 C0 1.34 0 0.68 0 0 Z " fill="#FFFFFF" transform="translate(161,15)"/>
<path d="M0 0 C-0.33 0.99 -0.66 1.98 -1 3 C-2.65 3.33 -4.3 3.66 -6 4 C-5.67 3.01 -5.34 2.02 -5 1 C-2 0 -2 0 0 0 Z " fill="#FFFFFF" transform="translate(151,202)"/>
<path d="M0 0 C2.97 0.495 2.97 0.495 6 1 C5.67 1.99 5.34 2.98 5 4 C2.525 3.01 2.525 3.01 0 2 C0 1.34 0 0.68 0 0 Z " fill="#FFFFFF" transform="translate(61,202)"/>
<path d="M0 0 C0 0.66 0 1.32 0 2 C-1.98 2.66 -3.96 3.32 -6 4 C-5.67 3.01 -5.34 2.02 -5 1 C-3 0 -3 0 0 0 Z " fill="#FFFFFF" transform="translate(160,198)"/>
<path d="M0 0 C2.86724686 0.57344937 3.8614515 0.8614515 6 3 C5.01 3.33 4.02 3.66 3 4 C2.01 3.34 1.02 2.68 0 2 C0 1.34 0 0.68 0 0 Z " fill="#FFFFFF" transform="translate(44,192)"/>
<path d="M0 0 C0.66 0 1.32 0 2 0 C1.34 1.65 0.68 3.3 0 5 C-0.99 5 -1.98 5 -3 5 C-1.125 1.125 -1.125 1.125 0 0 Z " fill="#FFFFFF" transform="translate(188,172)"/>
<path d="M0 0 C1.98 0.99 1.98 0.99 4 2 C4 3.32 4 4.64 4 6 C2.62437146 4.71034824 1.29233607 3.37310707 0 2 C0 1.34 0 0.68 0 0 Z " fill="#FFFFFF" transform="translate(22,171)"/>
<path d="M0 0 C0.66 0 1.32 0 2 0 C1.34 1.65 0.68 3.3 0 5 C-0.99 4.67 -1.98 4.34 -3 4 C-1.625 2 -1.625 2 0 0 Z " fill="#FFFFFF" transform="translate(194,164)"/>
<path d="M0 0 C0.66 0 1.32 0 2 0 C1.67 1.65 1.34 3.3 1 5 C0.01 5.33 -0.98 5.66 -2 6 C-1.34 4.02 -0.68 2.04 0 0 Z " fill="#FFFFFF" transform="translate(199,155)"/>
<path d="M0 0 C2.2477975 2.05233685 3.0022242 3.00667261 4 6 C3.01 6 2.02 6 1 6 C0.34 4.35 -0.32 2.7 -1 1 C-0.67 0.67 -0.34 0.34 0 0 Z " fill="#FFFFFF" transform="translate(12,154)"/>
<path d="M0 0 C0.66 0 1.32 0 2 0 C1.34 1.98 0.68 3.96 0 6 C-0.66 6 -1.32 6 -2 6 C-1.34 4.02 -0.68 2.04 0 0 Z " fill="#FFFFFF" transform="translate(207,137)"/>
<path d="M0 0 C0.99 0.33 1.98 0.66 3 1 C2.34 2.65 1.68 4.3 1 6 C0.34 6 -0.32 6 -1 6 C-0.67 4.02 -0.34 2.04 0 0 Z " fill="#FFFFFF" transform="translate(3,77)"/>
<path d="M0 0 C0.66 0 1.32 0 2 0 C2.66 1.98 3.32 3.96 4 6 C3.01 5.67 2.02 5.34 1 5 C0.67 3.35 0.34 1.7 0 0 Z " fill="#FFFFFF" transform="translate(201,59)"/>
<path d="M0 0 C0.66 0 1.32 0 2 0 C1.34 1.98 0.68 3.96 0 6 C-0.66 6 -1.32 6 -2 6 C-1.125 1.125 -1.125 1.125 0 0 Z " fill="#FFFFFF" transform="translate(11,58)"/>
<path d="M0 0 C0.66 0 1.32 0 2 0 C4 3 4 3 4 6 C3.34 6 2.68 6 2 6 C0 3 0 3 0 0 Z " fill="#FFFFFF" transform="translate(196,50)"/>
<path d="M0 0 C0.66 0.66 1.32 1.32 2 2 C0.625 4 0.625 4 -1 6 C-1.66 6 -2.32 6 -3 6 C-1.125 1.125 -1.125 1.125 0 0 Z " fill="#FFFFFF" transform="translate(16,49)"/>
<path d="M0 0 C1.9375 0.8125 1.9375 0.8125 4 2 C4.33 2.99 4.66 3.98 5 5 C4.01 5 3.02 5 2 5 C1.34 3.35 0.68 1.7 0 0 Z " fill="#FFFFFF" transform="translate(190,42)"/>
<path d="M0 0 C0.66 0 1.32 0 2 0 C1.49396008 2.16874252 1.00016187 3.99967627 0 6 C-0.66 6 -1.32 6 -2 6 C-1.49396008 3.83125748 -1.00016187 2.00032373 0 0 Z " fill="#FFFFFF" transform="translate(21,41)"/>
<path d="M0 0 C1.875 0.3125 1.875 0.3125 4 1 C4.66 1.99 5.32 2.98 6 4 C3 4 3 4 0 2 C0 1.34 0 0.68 0 0 Z " fill="#FFFFFF" transform="translate(169,21)"/>
<path d="M0 0 C0.66 0.66 1.32 1.32 2 2 C-1.75 5 -1.75 5 -4 5 C-2.25 1.125 -2.25 1.125 0 0 Z " fill="#FFFFFF" transform="translate(43,20)"/>
<path d="M0 0 C0 0.66 0 1.32 0 2 C-1.98 2.66 -3.96 3.32 -6 4 C-5.67 3.01 -5.34 2.02 -5 1 C-3 0 -3 0 0 0 Z " fill="#FFFFFF" transform="translate(53,15)"/>
<path d="M0 0 C0 0.66 0 1.32 0 2 C-1.98 2.66 -3.96 3.32 -6 4 C-5.67 3.01 -5.34 2.02 -5 1 C-3 0 -3 0 0 0 Z " fill="#FFFFFF" transform="translate(62,10)"/>
<path d="M0 0 C1.98 0.66 3.96 1.32 6 2 C6 2.66 6 3.32 6 4 C4.35 3.67 2.7 3.34 1 3 C0.67 2.01 0.34 1.02 0 0 Z " fill="#FFFFFF" transform="translate(143,6)"/>
<path d="M0 0 C0 0.66 0 1.32 0 2 C-1.98 2.66 -3.96 3.32 -6 4 C-5.67 3.01 -5.34 2.02 -5 1 C-3 0 -3 0 0 0 Z " fill="#FFFFFF" transform="translate(71,6)"/>
<path d="M0 0 C2.97 0.495 2.97 0.495 6 1 C6 1.66 6 2.32 6 3 C4.35 3 2.7 3 1 3 C0.67 2.01 0.34 1.02 0 0 Z " fill="#FFFFFF" transform="translate(80,208)"/>
<path d="M0 0 C2.475 0.99 2.475 0.99 5 2 C5 2.66 5 3.32 5 4 C3.35 3.67 1.7 3.34 0 3 C0 2.01 0 1.02 0 0 Z " fill="#FFFFFF" transform="translate(53,197)"/>
<path d="M0 0 C0.66 0 1.32 0 2 0 C1.1875 1.9375 1.1875 1.9375 0 4 C-0.99 4.33 -1.98 4.66 -3 5 C-1.125 1.125 -1.125 1.125 0 0 Z " fill="#FFFFFF" transform="translate(174,186)"/>
<path d="M0 0 C0.33 0.99 0.66 1.98 1 3 C-0.32 3.99 -1.64 4.98 -3 6 C-3 3 -3 3 -1.5 1.3125 C-0.7575 0.6628125 -0.7575 0.6628125 0 0 Z " fill="#FFFFFF" transform="translate(182,179)"/>
<path d="M0 0 C1.9375 0.8125 1.9375 0.8125 4 2 C4.33 2.99 4.66 3.98 5 5 C3.0625 4.1875 3.0625 4.1875 1 3 C0.67 2.01 0.34 1.02 0 0 Z " fill="#FFFFFF" transform="translate(29,179)"/>
<path d="M0 0 C0.66 0 1.32 0 2 0 C1.67 1.98 1.34 3.96 1 6 C0.34 6 -0.32 6 -1 6 C-0.67 4.02 -0.34 2.04 0 0 Z " fill="#FFFFFF" transform="translate(203,146)"/>
<path d="M0 0 C0.66 0.33 1.32 0.66 2 1 C2.625 3.5625 2.625 3.5625 3 6 C2.01 5.67 1.02 5.34 0 5 C-0.75 3 -0.75 3 -1 1 C-0.67 0.67 -0.34 0.34 0 0 Z " fill="#FFFFFF" transform="translate(8,145)"/>
<path d="M0 0 C0.66 0 1.32 0 2 0 C2.33 1.98 2.66 3.96 3 6 C2.34 6 1.68 6 1 6 C0.67 4.02 0.34 2.04 0 0 Z " fill="#FFFFFF" transform="translate(4,136)"/>
<path d="M0 0 C0.66 0 1.32 0 2 0 C2 1.65 2 3.3 2 5 C1.01 5.33 0.02 5.66 -1 6 C-0.67 4.02 -0.34 2.04 0 0 Z " fill="#FFFFFF" transform="translate(209,127)"/>
<path d="M0 0 C0.66 0 1.32 0 2 0 C2.33 1.98 2.66 3.96 3 6 C2.34 6 1.68 6 1 6 C0.67 4.02 0.34 2.04 0 0 Z " fill="#FFFFFF" transform="translate(208,78)"/>
<path d="M0 0 C0.66 0 1.32 0 2 0 C2.33 1.98 2.66 3.96 3 6 C2.34 6 1.68 6 1 6 C0.67 4.02 0.34 2.04 0 0 Z " fill="#FFFFFF" transform="translate(205,68)"/>
<path d="M0 0 C0.66 0.66 1.32 1.32 2 2 C1.34 3.32 0.68 4.64 0 6 C-0.66 6 -1.32 6 -2 6 C-1.34 4.02 -0.68 2.04 0 0 Z " fill="#FFFFFF" transform="translate(7,67)"/>
<path d="M0 0 C1.9375 0.8125 1.9375 0.8125 4 2 C4.33 2.99 4.66 3.98 5 5 C3.0625 4.1875 3.0625 4.1875 1 3 C0.67 2.01 0.34 1.02 0 0 Z " fill="#FFFFFF" transform="translate(177,27)"/>
<path d="M0 0 C2.475 0.99 2.475 0.99 5 2 C5 2.66 5 3.32 5 4 C3.35 3.67 1.7 3.34 0 3 C0 2.01 0 1.02 0 0 Z " fill="#FFFFFF" transform="translate(153,10)"/>
<path d="M0 0 C0 0.66 0 1.32 0 2 C-1.98 2.33 -3.96 2.66 -6 3 C-6 2.34 -6 1.68 -6 1 C-3 0 -3 0 0 0 Z " fill="#FFFFFF" transform="translate(80,3)"/>
<path d="M0 0 C1.98 0.66 3.96 1.32 6 2 C5.34 2.66 4.68 3.32 4 4 C2.68 3.34 1.36 2.68 0 2 C0 1.34 0 0.68 0 0 Z " fill="#FFFFFF" transform="translate(134,3)"/>
<path d="M0 0 C0 0.99 0 1.98 0 3 C-1.65 3 -3.3 3 -5 3 C-5 2.34 -5 1.68 -5 1 C-3.35 0.67 -1.7 0.34 0 0 Z " fill="#FFFFFF" transform="translate(121,210)"/>
<path d="M0 0 C2.97 0.495 2.97 0.495 6 1 C6 1.66 6 2.32 6 3 C3.03 2.505 3.03 2.505 0 2 C0 1.34 0 0.68 0 0 Z " fill="#FFFFFF" transform="translate(90,210)"/>
<path d="M0 0 C1.65 0 3.3 0 5 0 C5 0.66 5 1.32 5 2 C3.02 2.33 1.04 2.66 -1 3 C-0.67 2.01 -0.34 1.02 0 0 Z " fill="#FFFFFF" transform="translate(127,209)"/>
<path d="M0 0 C0 0.66 0 1.32 0 2 C-1.65 2.33 -3.3 2.66 -5 3 C-5.33 2.34 -5.66 1.68 -6 1 C-3 0 -3 0 0 0 Z " fill="#FFFFFF" transform="translate(141,206)"/>
<path d="M0 0 C1.9375 0.3125 1.9375 0.3125 4 1 C4.33 1.99 4.66 2.98 5 4 C2.525 3.01 2.525 3.01 0 2 C0 1.34 0 0.68 0 0 Z " fill="#FFFFFF" transform="translate(36,186)"/>
<path d="M0 0 C0.66 0 1.32 0 2 0 C2.33 1.98 2.66 3.96 3 6 C2.01 5.67 1.02 5.34 0 5 C0 3.35 0 1.7 0 0 Z " fill="#FFFFFF" transform="translate(0,116)"/>
<path d="M0 0 C0.66 0.66 1.32 1.32 2 2 C0.625 3.5 0.625 3.5 -1 5 C-1.66 5 -2.32 5 -3 5 C-1.125 1.125 -1.125 1.125 0 0 Z " fill="#FFFFFF" transform="translate(35,26)"/>
<path d="M0 0 C2.97 0.495 2.97 0.495 6 1 C6 1.66 6 2.32 6 3 C3.03 2.505 3.03 2.505 0 2 C0 1.34 0 0.68 0 0 Z " fill="#FFFFFF" transform="translate(124,1)"/>
<path d="M0 0 C0 0.66 0 1.32 0 2 C-1.98 2.33 -3.96 2.66 -6 3 C-6 2.34 -6 1.68 -6 1 C-4 0 -4 0 0 0 Z " fill="#FFFFFF" transform="translate(90,1)"/>
<path d="M0 0 C1.98 0 3.96 0 6 0 C6 0.66 6 1.32 6 2 C4.02 2 2.04 2 0 2 C0 1.34 0 0.68 0 0 Z " fill="#FFFFFF" transform="translate(114,0)"/>
<path d="M0 0 C1.98 0 3.96 0 6 0 C6 0.66 6 1.32 6 2 C4.02 2 2.04 2 0 2 C0 1.34 0 0.68 0 0 Z " fill="#FFFFFF" transform="translate(94,0)"/>
<path d="M0 0 C2.475 0.495 2.475 0.495 5 1 C5 1.66 5 2.32 5 3 C3.35 2.67 1.7 2.34 0 2 C0 1.34 0 0.68 0 0 Z " fill="#FFFFFF" transform="translate(71,206)"/>
<path d="M0 0 C0.99 0.495 0.99 0.495 2 1 C2 2.65 2 4.3 2 6 C1.34 6 0.68 6 0 6 C0 4.02 0 2.04 0 0 Z " fill="#FFFFFF" transform="translate(2,126)"/>
<path d="M0 0 C0.66 0.33 1.32 0.66 2 1 C1.67 2.65 1.34 4.3 1 6 C0.34 6 -0.32 6 -1 6 C-0.67 4.02 -0.34 2.04 0 0 Z " fill="#FFFFFF" transform="translate(211,117)"/>
<path d="M0 0 C0.99 0.495 0.99 0.495 2 1 C2 2.65 2 4.3 2 6 C1.34 6 0.68 6 0 6 C0 4.02 0 2.04 0 0 Z " fill="#FFFFFF" transform="translate(0,106)"/>
<path d="M0 0 C0.99 0.495 0.99 0.495 2 1 C2 2.65 2 4.3 2 6 C1.34 6 0.68 6 0 6 C0 4.02 0 2.04 0 0 Z " fill="#FFFFFF" transform="translate(0,96)"/>
<path d="M0 0 C0.66 0 1.32 0 2 0 C2.33 1.65 2.66 3.3 3 5 C2.01 5.495 2.01 5.495 1 6 C0.67 4.02 0.34 2.04 0 0 Z " fill="#FFFFFF" transform="translate(210,88)"/>
<path d="M0 0 C0.66 0 1.32 0 2 0 C2 1.65 2 3.3 2 5 C1.01 5.495 1.01 5.495 0 6 C0 4.02 0 2.04 0 0 Z " fill="#FFFFFF" transform="translate(1,87)"/>
<path d="M0 0 C1.98 0 3.96 0 6 0 C6 0.66 6 1.32 6 2 C4.02 2 2.04 2 0 2 C0 1.34 0 0.68 0 0 Z " fill="#FFFFFF" transform="translate(104,0)"/>
<path d="M0 0 C0.66 0 1.32 0 2 0 C2 1.65 2 3.3 2 5 C1.34 5 0.68 5 0 5 C0 3.35 0 1.7 0 0 Z " fill="#FFFFFF" transform="translate(211,108)"/>
<path d="M0 0 C0.66 0 1.32 0 2 0 C2 1.65 2 3.3 2 5 C1.34 5 0.68 5 0 5 C0 3.35 0 1.7 0 0 Z " fill="#FFFFFF" transform="translate(211,98)"/>
</svg>
