<?xml version="1.0" standalone="no"?>
<!DOCTYPE svg PUBLIC "-//W3C//DTD SVG 20010904//EN"
 "http://www.w3.org/TR/2001/REC-SVG-20010904/DTD/svg10.dtd">
<svg version="1.0" xmlns="http://www.w3.org/2000/svg"
 width="215.000000pt" height="215.000000pt" viewBox="0 0 215.000000 215.000000"
 preserveAspectRatio="xMidYMid meet">

<g transform="translate(0.000000,215.000000) scale(0.100000,-0.100000)"
fill="#000000" stroke="none">
<path d="M590 1255 c0 -20 5 -25 25 -25 20 0 25 5 25 25 0 20 -5 25 -25 25
-20 0 -25 -5 -25 -25z"/>
<path d="M830 1225 c0 -43 33 -65 96 -65 54 0 55 0 52 28 -3 25 -7 27 -46 27
-33 0 -42 4 -42 18 0 12 -8 17 -30 17 -25 0 -30 -4 -30 -25z"/>
<path d="M583 1210 c-43 -17 -58 -84 -25 -113 9 -9 29 -20 42 -26 21 -8 16
-10 -32 -10 l-58 -1 0 35 c0 33 -2 35 -35 35 -33 0 -35 -2 -35 -35 l0 -35 -63
0 c-67 0 -87 10 -87 46 0 17 -7 23 -30 26 -29 4 -30 3 -30 -33 0 -26 8 -47 26
-68 l25 -31 182 1 c220 0 217 -2 217 105 0 66 -2 74 -26 93 -29 23 -38 24 -71
11z m47 -66 c0 -14 -21 -19 -33 -7 -9 9 13 34 24 27 5 -3 9 -12 9 -20z"/>
<path d="M320 1165 c0 -23 3 -25 50 -25 47 0 50 2 50 25 0 23 -3 25 -50 25
-47 0 -50 -2 -50 -25z"/>
<path d="M900 1098 c0 -26 -4 -37 -11 -32 -6 3 -9 19 -7 35 4 27 2 29 -29 29
-31 0 -33 -2 -33 -35 0 -28 -4 -35 -20 -35 -16 0 -20 7 -20 35 0 32 -2 35 -30
35 l-30 0 0 -70 c0 -63 -3 -74 -26 -95 -23 -22 -24 -26 -12 -49 l13 -26 33 23
c17 12 37 37 44 55 10 27 17 32 48 33 19 1 40 0 45 -1 6 -2 18 -3 28 -2 16 1
47 2 85 2 356 -1 342 -5 342 87 0 52 0 53 -30 53 -28 0 -30 -2 -30 -40 l0 -40
-50 0 -50 0 0 35 c0 32 -2 35 -29 35 -26 0 -30 -4 -33 -32 -2 -28 -8 -34 -30
-36 -27 -3 -28 -1 -28 37 0 39 -2 41 -30 41 -28 0 -30 -2 -30 -40 0 -22 -4
-40 -10 -40 -5 0 -10 15 -10 34 0 30 -3 34 -30 38 -29 4 -30 3 -30 -34z"/>
<path d="M1030 955 c0 -23 4 -25 45 -25 41 0 45 2 45 25 0 23 -4 25 -45 25
-41 0 -45 -2 -45 -25z"/>
<path d="M1170 955 c0 -22 4 -25 39 -25 30 0 40 -4 44 -20 3 -14 14 -20 31
-20 22 0 26 4 26 28 0 43 -28 62 -88 62 -49 0 -52 -2 -52 -25z"/>
</g>
</svg>
